
<svg xmlns="http://www.w3.org/2000/svg" viewBox="0 0 55 55">
	<style type="text/css">
		.st0{fill:#bbb;filter:url(#dropshadow);}
		.st1{fill:#575757;}
		.st2{fill:#676767;}
		.st3{fill:#545454;}
		.st4{fill:#585858;}
		.st5{fill:#A8A8A8;}
		.st6{fill:#FFFFFF;}
		.st7{fill:#D6D6D6;}
		.st8{fill:#8A8A8A;}
		.st9{fill:#B6B6B6;}
		.st10{fill:#E3E3E3;}
		.st11{fill:#E9E9E9;}
		.st12{fill:#C6C6C6;}
		.st13{fill:#888888;}
		.st14{fill:none;stroke:#000000;stroke-width:0.75;stroke-linejoin:round;stroke-miterlimit:10;}
	</style>
	<filter filterUnits="objectBoundingBox" id="dropshadow">
		<feOffset dx="0" dy=".5" in="SourceAlpha" result="defappShadowOffsetOuter1"></feOffset>
		<feGaussianBlur stdDeviation=".5" in="defappShadowOffsetOuter1" result="defappShadowBlurOuter1"></feGaussianBlur>
		<feColorMatrix values="0 0 0 0 0   0 0 0 0 0   0 0 0 0 0  0 0 0 0.5 0" type="matrix" in="defappShadowBlurOuter1" result="defappShadowMatrixOuter1"></feColorMatrix>
		<feMerge>
			<feMergeNode in="defappShadowMatrixOuter1"/>
			<feMergeNode in="SourceGraphic"/>
		</feMerge>
	</filter>
	<polygon class="st0" points="4.4,34.9 24.8,50.5 28.2,52.6 42.5,47.9 50.6,18.3 26.5,1.4 12.5,6.4 11.2,9.8 "/>
	<polygon class="st1" points="4.7,34.7 14.3,21.9 11.6,9.8 "/>
	<polygon class="st2" points="19.5,37.7 14.3,21.9 4.7,34.7 "/>
	<polygon class="st3" points="24.8,50.4 19.5,37.7 4.7,34.7 "/>
	<polygon class="st4" points="28.2,52.6 24.8,50.4 39.8,44.7 42.3,47.7 "/>
	<polygon class="st5" points="24.8,50.4 39.8,44.7 34.5,32.2 19.5,37.7 "/>
	<polygon class="st6" points="19.5,37.7 34.5,32.2 29.3,16.5 14.3,21.9 "/>
	<polygon class="st7" points="14.3,21.9 29.3,16.5 25.8,4.9 11.6,9.8 "/>
	<polygon class="st8" points="11.6,9.8 25.8,4.9 26.2,1.5 12.5,6.6 "/>
	<polygon class="st9" points="26.2,1.5 50.4,18.7 25.8,4.9 "/>
	<polygon class="st10" points="29.3,16.5 50.4,18.7 25.8,4.9 "/>
	<polygon class="st11" points="34.5,32.2 50.4,18.7 29.3,16.5 "/>
	<polygon class="st12" points="39.8,44.7 50.4,18.7 34.5,32.2 "/>
	<polygon class="st13" points="42.3,47.7 50.4,18.7 39.8,44.7 "/>
	<polygon class="st14" points="4.4,34.9 24.8,50.5 28.2,52.6 42.5,47.9 50.6,18.3 26.5,1.4 12.5,6.4 11.2,9.8 "/>
</svg>
