<svg xmlns="http://www.w3.org/2000/svg" width="0" height="0">

	<svg id="icon-arrow-left" viewBox="0 0 21 21">
		<style type="text/css">
			.st0{fill:#fff;}
		</style>
		<polygon class="st0" points="18.2,10.3 2.8,3.6 6.8,10.3 2.8,17.4 "/>
	</svg>

	<svg id="icon-arrow-right" viewBox="0 0 21 21">
		<style type="text/css">
			.st0{fill:#fff;}
		</style>
		<polygon class="st0" points="2.8,10.7 18.2,17.4 14.2,10.7 18.2,3.6 "/>
	</svg>

	<svg id="icon-arrow-up" viewBox="0 0 21 21">
		<style type="text/css">
			.st0{fill:#fff;}
		</style>
		<polygon class="st0" points="10.3,2.8 3.6,18.2 10.3,14.2 17.4,18.2 "/>
	</svg>

	<svg id="icon-arrow-down" viewBox="0 0 21 21">
		<style type="text/css">
			.st0{fill:#fff;}
		</style>
		<polygon class="st0" points="10.7,18.2 17.4,2.8 10.7,6.8 3.6,2.8 "/>
	</svg>

	<svg id="icon-space" viewBox="0 0 33 21">
		<style type="text/css">
			.st0{fill:#fff;}
		</style>
		<path class="st0" d="M6.8,8.5H4.4V7.8c0-0.3,0-0.6-0.1-0.7C4.2,7,4.1,7,4,7C3.8,7,3.7,7,3.6,7.2C3.5,7.3,3.5,7.5,3.5,7.7c0,0.3,0,0.6,0.1,0.8
			C3.7,8.7,4,8.9,4.4,9.1c1.2,0.7,1.9,1.3,2.2,1.7C6.9,11.3,7,12,7,13c0,0.7-0.1,1.2-0.3,1.6c-0.2,0.3-0.5,0.6-1,0.9s-1,0.3-1.7,0.3
			c-0.7,0-1.3-0.1-1.8-0.4c-0.5-0.3-0.8-0.6-1-1c-0.2-0.4-0.2-1-0.2-1.7v-0.7h2.4v1.2c0,0.4,0,0.6,0.1,0.7S3.8,14,4,14
			c0.2,0,0.3-0.1,0.4-0.2c0.1-0.1,0.1-0.3,0.1-0.6c0-0.6-0.1-1-0.2-1.2c-0.2-0.2-0.6-0.5-1.2-0.9c-0.7-0.4-1.1-0.7-1.3-0.9
			C1.6,10,1.4,9.7,1.3,9.4C1.1,9.1,1,8.6,1,8.1c0-0.8,0.1-1.3,0.3-1.7c0.2-0.4,0.5-0.6,1-0.8c0.4-0.2,1-0.3,1.6-0.3
			c0.7,0,1.3,0.1,1.7,0.3c0.5,0.2,0.8,0.5,1,0.8c0.2,0.3,0.2,0.9,0.2,1.7V8.5z"/>
		<path class="st0" d="M7.8,5.5h2.6c0.7,0,1.3,0.1,1.6,0.2s0.7,0.3,0.9,0.5c0.2,0.2,0.3,0.5,0.4,0.8s0.1,0.8,0.1,1.4v0.9c0,0.6-0.1,1.1-0.2,1.4
			c-0.1,0.3-0.4,0.5-0.7,0.7c-0.4,0.2-0.8,0.2-1.4,0.2h-0.7v4H7.8V5.5z M10.5,7.2v2.6c0.1,0,0.1,0,0.2,0c0.2,0,0.4-0.1,0.5-0.2
			s0.1-0.4,0.1-0.7V8c0-0.3-0.1-0.6-0.2-0.7S10.8,7.2,10.5,7.2z"/>
		<path class="st0" d="M18.4,5.5l1.5,10.1h-2.7l-0.1-1.8h-0.9L16,15.5h-2.7l1.3-10.1H18.4z M17,11.9c-0.1-1.1-0.3-2.5-0.4-4.2
			c-0.3,1.9-0.4,3.3-0.5,4.2H17z"/>
		<path class="st0" d="M26.5,9.9h-2.6V8.1c0-0.5,0-0.8-0.1-1C23.7,7,23.6,7,23.4,7C23.2,7,23.1,7,23,7.2c-0.1,0.2-0.1,0.5-0.1,1v4.7
			c0,0.5,0,0.8,0.1,1c0.1,0.1,0.2,0.2,0.4,0.2c0.2,0,0.3-0.1,0.4-0.2c0.1-0.2,0.1-0.5,0.1-1.1v-1.3h2.6v0.4c0,1-0.1,1.8-0.2,2.2
			c-0.1,0.4-0.5,0.8-1,1.1c-0.5,0.3-1.1,0.5-1.9,0.5c-0.8,0-1.4-0.1-1.9-0.4s-0.8-0.7-1-1.2c-0.2-0.5-0.2-1.2-0.2-2.2V9
			c0-0.7,0-1.3,0.1-1.6c0-0.4,0.2-0.7,0.4-1c0.2-0.3,0.6-0.6,1-0.8s0.9-0.3,1.5-0.3c0.8,0,1.4,0.1,1.9,0.4c0.5,0.3,0.8,0.7,1,1.1
			c0.2,0.4,0.2,1.1,0.2,2.1V9.9z"/>
		<path class="st0" d="M27.4,5.5h4.4v2H30v1.9h1.6v1.9H30v2.2H32v2h-4.5V5.5z"/>
	</svg>

	<svg id="icon-p" viewBox="0 0 21 21">
		<style type="text/css">
			.st0{fill:#fff;}
		</style>
		<path class="st0" d="M6.3,3h3.9c1.1,0,1.9,0.1,2.5,0.3c0.6,0.2,1,0.4,1.3,0.7s0.5,0.7,0.6,1.1c0.1,0.4,0.2,1.1,0.2,2.1v1.3c0,1-0.1,1.7-0.3,2.1
		s-0.6,0.8-1.1,1c-0.5,0.2-1.2,0.4-2.1,0.4h-1V18H6.3V3z M10.2,5.6v3.8c0.1,0,0.2,0,0.3,0c0.4,0,0.6-0.1,0.7-0.3s0.2-0.5,0.2-1.1
		V6.8c0-0.5-0.1-0.8-0.2-1C11,5.6,10.7,5.6,10.2,5.6z"/>
	</svg>

	<svg id="icon-escape" viewBox="0 0 21 21">
		<style type="text/css">
			.st0{fill:#fff;}
		</style>
		<path class="st0" d="M0.9,5.1h4.7v2.1H3.7v2.1h1.7v2.1H3.7v2.4h2v2.1H0.9V5.1z"/>
		<path class="st0" d="M12.5,8.4H9.9V7.6c0-0.4,0-0.6-0.1-0.7c0-0.1-0.2-0.1-0.3-0.1c-0.2,0-0.3,0.1-0.4,0.2C8.9,7.1,8.9,7.3,8.9,7.6
			c0,0.4,0,0.6,0.1,0.8S9.4,8.8,9.8,9c1.2,0.7,2.1,1.4,2.4,1.8c0.3,0.5,0.5,1.2,0.5,2.3c0,0.8-0.1,1.3-0.3,1.7
			c-0.2,0.4-0.5,0.7-1.1,0.9c-0.5,0.2-1.1,0.4-1.8,0.4c-0.7,0-1.4-0.1-1.9-0.4c-0.5-0.3-0.9-0.6-1.1-1.1c-0.2-0.5-0.2-1.1-0.2-1.9V12
			H9v1.3c0,0.4,0,0.7,0.1,0.8c0.1,0.1,0.2,0.2,0.4,0.2s0.3-0.1,0.4-0.2s0.1-0.4,0.1-0.6c0-0.6-0.1-1.1-0.3-1.2c-0.2-0.2-0.6-0.5-1.3-1
			c-0.7-0.5-1.1-0.8-1.4-1C6.8,10,6.7,9.7,6.5,9.4C6.4,9,6.3,8.6,6.3,8c0-0.8,0.1-1.4,0.3-1.8c0.2-0.4,0.5-0.7,1-0.9s1.1-0.3,1.7-0.3
			c0.7,0,1.4,0.1,1.9,0.4c0.5,0.2,0.9,0.5,1,0.9s0.2,1,0.2,1.8L12.5,8.4L12.5,8.4z"/>
		<path class="st0" d="M20.1,9.8h-2.8V8c0-0.5,0-0.9-0.1-1c0-0.1-0.2-0.2-0.4-0.2S16.4,6.9,16.3,7c0,0.2-0.1,0.5-0.1,1.1v5
			c0,0.5,0,0.9,0.1,1c0,0.2,0.2,0.2,0.4,0.2s0.4-0.1,0.4-0.2c0-0.2,0.1-0.5,0.1-1.1v-1.4h2.8V12c0,1.1-0.1,1.9-0.2,2.4
			c-0.1,0.5-0.5,0.9-1.1,1.2s-1.2,0.5-2,0.5c-0.8,0-1.5-0.1-2.1-0.5c-0.5-0.3-0.9-0.7-1.1-1.2c-0.2-0.5-0.3-1.3-0.3-2.4V8.9
			c0-0.8,0-1.4,0.1-1.7c0-0.4,0.2-0.8,0.5-1.1c0.3-0.4,0.6-0.6,1.1-0.9c0.5-0.2,1-0.3,1.6-0.3c0.8,0,1.5,0.2,2.1,0.5s0.9,0.7,1.1,1.2
			C20,7,20,7.8,20,8.8L20.1,9.8L20.1,9.8z"/>
	</svg>

	<svg id="icon-sound-fx" viewBox="0 0 23 23">
		<path fill="#333" d="M18.3,18.7c-0.3,0-0.6-0.1-0.8-0.3c-0.4-0.4-0.4-1.1,0-1.5c3-3,3-7.8,0-10.8c-0.4-0.4-0.4-1.1,0-1.5
			c0.4-0.4,1.1-0.4,1.5,0c1.8,1.8,2.9,4.3,2.9,6.9c0,2.6-1,5.1-2.9,6.9C18.9,18.6,18.6,18.7,18.3,18.7L18.3,18.7L18.3,18.7z
			 M14.4,16.6c-0.3,0-0.6-0.1-0.8-0.3c-0.4-0.4-0.4-1.1,0-1.5c1.8-1.8,1.8-4.8,0-6.7c-0.4-0.4-0.4-1.1,0-1.5c0.4-0.4,1.1-0.4,1.5,0
			c2.7,2.7,2.7,7.1,0,9.7C15,16.5,14.7,16.6,14.4,16.6z"/>
		<path fill="#333" d="M10.4,21.6c-0.2,0-0.4-0.1-0.5-0.2l-5.6-5.6H1.7c-0.4,0-0.7-0.3-0.7-0.7V7.8c0-0.4,0.3-0.7,0.7-0.7h2.6
			l5.6-5.6c0.2-0.2,0.5-0.3,0.8-0.2s0.4,0.4,0.4,0.7v18.9c0,0.3-0.2,0.6-0.4,0.7C10.6,21.6,10.5,21.6,10.4,21.6z"/>
	</svg>

	<svg id="icon-music" viewBox="0 0 23 23">
		<path fill="#333" d="M21,2.4v13.9c0,1.7-2.6,2.4-4,2.4s-4-0.6-4-2.4c0-1.7,2.6-2.4,4-2.4c0.8,0,1.6,0.1,2.4,0.5V7.7l-9.5,2.9v8.8
			c0,1.7-2.6,2.4-4,2.4s-4-0.6-4-2.4S4.6,17,6,17c0.8,0,1.6,0.1,2.4,0.5v-12c0-0.5,0.3-1,0.8-1.1l10.3-3.2c0.1,0,0.2,0,0.3,0
			C20.5,1.2,21,1.7,21,2.4z"/>
	</svg>

	<svg id="icon-rotation" viewBox="0 0 41 369">
		<style type="text/css">
			.st0{fill:#777724;}
			.st1{fill:#7E7E27;}
			.st2{fill:#898929;}
			.st3{fill:#91912C;}
			.st4{fill:#93932C;}
			.st5{fill:#8E8E2C;}
			.st6{fill:#868628;}
			.st7{fill:#7C7C26;}
			.st8{fill:#757523;}
			.st9{fill:#848428;}
			.st10{fill:#767623;}
			.st11{fill:#D5D641;}
			.st12{fill:#95952D;}
			.st13{fill:#8A8A2A;}
			.st14{fill:#9B9B30;}
			.st15{fill:#A2A231;}
			.st16{fill:#9B9B2E;}
			.st17{fill:#33330E;}
			.st18{fill:#DBDC42;}
			.st19{fill:#CECE3E;}
			.st20{fill:#55561A;}
			.st21{fill:#99992F;}
			.st22{fill:#353510;}
			.st23{fill:#A6A632;}
			.st24{fill:#E1E144;}
			.st25{fill:#CFCF3E;}
			.st26{fill:#8B8B2B;}
			.st27{fill:#94942C;}
			.st28{fill:#9F9F30;}
			.st29{fill:#A8A833;}
			.st30{fill:#A3A331;}
			.st31{fill:#9A9A2F;}
			.st32{fill:#90902B;}
			.st33{fill:#92922C;}
			.st34{fill:#58591A;}
			.st35{fill:#C1C13A;}
			.st36{fill:#E7E745;}
			.st37{fill:#97972E;}
			.st38{fill:#E0E144;}
			.st39{fill:#828227;}
			.st40{fill:#9D9D2F;}
			.st41{fill:#A0A030;}
			.st42{fill:#7D7D27;}
			.st43{fill:#D8D941;}
			.st44{fill:#ECEC47;}
			.st45{fill:#EFEF49;}
			.st46{fill:#B4B436;}
			.st47{fill:#3B3B12;}
			.st48{fill:#6E6E22;}
			.st49{fill:#8B8B2A;}
			.st50{fill:#FFFF5E;}
			.st51{fill:#4F5018;}
			.st52{fill:#8C8C2B;}
			.st53{fill:#F0F049;}
			.st54{fill:#FFFF4D;}
			.st55{fill:#DEDF42;}
			.st56{fill:#595A1B;}
			.st57{fill:#F2F248;}
			.st58{fill:#F2F24A;}
			.st59{fill:#484916;}
			.st60{fill:#414212;}
			.st61{fill:#FEFE4D;}
			.st62{fill:#494A16;}
			.st63{fill:#3C3C12;}
			.st64{fill:#393911;}
			.st65{fill:#3D3D12;}
			.st66{fill:#474815;}
			.st67{fill:#52531A;}
			.st68{fill:#6A6A20;}
			.st69{fill:#878729;}
			.st70{fill:#E6E645;}
			.st71{fill:#D0D13F;}
			.st72{fill:#535418;}
			.st73{fill:#5D5E1C;}
			.st74{fill:#5A5B1B;}
			.st75{fill:#5F601D;}
			.st76{fill:#67671F;}
			.st77{fill:#737322;}
			.st78{fill:#797924;}
			.st79{fill:#727222;}
			.st80{fill:#68681F;}
		</style>
		<g id="_x30_">
			<polygon class="st0" points="12.5,35 20.3,21.7 5.3,27 	"/>
			<polygon class="st1" points="4.7,15.8 20.3,21.7 5.3,27 	"/>
			<polygon class="st2" points="4.7,15.8 12,7.3 20.3,21.7 	"/>
			<polygon class="st3" points="12,7.3 20.3,21.7 22.8,5.3 	"/>
			<polygon class="st4" points="32.2,11 20.3,21.7 22.8,5.3 	"/>
			<polygon class="st5" points="35.9,21.4 32.2,11 20.3,21.7 	"/>
			<polygon class="st6" points="35.9,21.4 32.2,31.7 20.3,21.7 	"/>
			<polygon class="st7" points="32.2,31.7 20.3,21.7 22.8,37 	"/>
			<polygon class="st8" points="22.8,37 12.5,35 20.3,21.7 	"/>
			<path class="st9" d="M34.2,10L22.8,3.6L10.7,5.8L2.9,15l0.4,13.4l8.1,8.6l11.4,1.9L33.6,33l4.5-11.3L34.2,10z M32.2,31.7L22.8,37
				l-10.3-2l-7.2-8L4.7,15.8L12,7.3l10.8-2l9.3,5.8l3.8,10.3L32.2,31.7z"/>
			<polygon class="st10" points="2.9,15 10.8,4.5 10.7,5.8 	"/>
			<polygon class="st11" points="10.7,5.8 22.8,3.6 34.2,10 33.8,8.2 22.8,2.1 10.8,4.5 	"/>
		</g>
		<g id="_x31_">
			<polygon class="st12" points="13.1,79.2 23.9,79.6 33.4,72.9 37.8,61.5 33.8,50.1 23.9,44.6 12.5,47.9 4.8,58.4 5.2,70.7 	"/>
			<polygon class="st6" points="13.4,77 21.1,63 23.5,77.5 	"/>
			<polygon class="st13" points="31.8,71.5 23.5,77.5 21.1,63 	"/>
			<polygon class="st4" points="31.8,71.5 35.5,61.5 21.1,63 	"/>
			<polygon class="st14" points="35.5,61.5 32.1,51 21.1,63 	"/>
			<polygon class="st15" points="32.1,51 21.1,63 23.9,46.4 	"/>
			<polygon class="st15" points="23.9,46.4 21.1,63 13.1,49.2 	"/>
			<polygon class="st16" points="13.1,49.2 6.5,58.4 21.1,63 	"/>
			<polygon class="st4" points="21.1,63 6.8,70.2 6.5,58.4 	"/>
			<polygon class="st13" points="13.4,77 21.1,63 6.8,70.2 	"/>
			<polygon class="st17" points="5.2,70.7 2.8,68.1 2.8,56.5 4.8,58.4 	"/>
			<polygon class="st13" points="2.8,56.5 10.5,46.4 12.5,47.9 4.8,58.4 	"/>
			<polygon class="st18" points="10.5,46.4 21.9,43.4 23.9,44.6 12.5,47.9 	"/>
			<polygon class="st19" points="13.4,77 13.9,77.5 23.9,78 32.4,71.9 31.8,71.5 23.5,77.5 	"/>
			<polygon class="st20" points="31.8,71.5 35.5,61.5 32.1,51 32.8,51 36.1,61.5 32.4,71.9 	"/>
		</g>
		<g id="_x32_">
			<polygon class="st21" points="9.6,100.5 16.2,88.8 26.2,85.1 34,90.2 37,101 33.5,113.2 25.9,120.7 16.5,121 9.6,112.9 	"/>
			<polygon class="st22" points="4.9,98.8 5.3,111.9 12.3,119.4 16.5,121 9.6,112.9 9.6,100.5 	"/>
			<polygon class="st23" points="4.9,98.8 11.9,87.4 16.2,88.8 9.6,100.5 	"/>
			<polygon class="st24" points="11.9,87.4 21.5,84 26.2,85.1 16.2,88.8 	"/>
			<polygon class="st25" points="16.8,118.8 17.4,119.3 25.8,119.3 32.9,112.2 31.5,111.9 24.6,118.7 	"/>
			<polygon class="st10" points="31.5,111.9 34.7,101.2 35.5,101.2 32.9,112.2 	"/>
			<polygon class="st17" points="35.5,101.2 33.2,91.2 26,86.8 25.2,87.1 32.5,91.5 34.7,101.2 	"/>
			<polygon class="st26" points="23.4,104 16.8,118.8 24.6,118.7 31.5,111.9 	"/>
			<polygon class="st27" points="23.4,104 31.5,111.9 34.7,101.2 	"/>
			<polygon class="st28" points="23.4,104 32.5,91.5 34.7,101.2 	"/>
			<polygon class="st23" points="32.5,91.5 25.2,87.1 23.4,104 	"/>
			<polygon class="st29" points="25.2,87.1 16.8,90.4 23.4,104 	"/>
			<polygon class="st30" points="16.8,90.4 11.1,100.5 23.4,104 	"/>
			<polygon class="st31" points="23.4,104 11.6,112.2 11.1,100.5 	"/>
			<polygon class="st32" points="23.4,104 16.8,118.8 11.6,112.2 	"/>
		</g>
		<g id="_x33_">
			<polygon class="st33" points="20.1,161.8 26,160.4 31,152.1 32.8,140.9 31.2,130.6 26,125.6 19.9,130.2 15.8,141.7 15.8,154.7 	"/>
			<polygon class="st17" points="20.1,161.8 13.8,160.6 9.6,153.5 15.8,154.7 	"/>
			<polygon class="st34" points="15.8,154.7 15.8,141.7 9.6,141 9.6,153.5 	"/>
			<polygon class="st35" points="15.8,141.7 19.9,130.2 13.4,129.3 9.6,141 	"/>
			<polygon class="st36" points="13.4,129.3 19.9,125.2 26,125.6 19.9,130.2 	"/>
			<polygon class="st17" points="26,127.7 30.5,131.6 32.1,141 30.8,141 29.6,131.6 25.6,128.3 	"/>
			<path class="st37" d="M32.1,141c-0.2,0.3-2,10.5-2,10.5l-1.2-0.4l1.8-10.1H32.1z"/>
			<polygon class="st38" points="30.1,151.5 26,159.1 20.6,160.2 20.1,159.5 25.1,158.5 29,151.2 	"/>
			<polygon class="st39" points="20.1,159.5 24.4,144.4 29,151.2 25.1,158.5 	"/>
			<polygon class="st13" points="29,151.2 30.8,141 24.4,144.4 	"/>
			<polygon class="st33" points="30.8,141 29.6,131.6 24.4,144.4 	"/>
			<polygon class="st40" points="29.6,131.6 25.6,128.3 24.4,144.4 	"/>
			<polygon class="st41" points="25.6,128.3 20.5,131.6 24.4,144.4 	"/>
			<polygon class="st40" points="20.5,131.6 16.6,141.7 24.4,144.4 	"/>
			<polygon class="st12" points="24.4,144.4 17,153.9 16.6,141.7 	"/>
			<polygon class="st26" points="24.4,144.4 20.1,159.5 17,153.9 	"/>
		</g>
		<g id="_x34_">
			<polygon class="st42" points="21.5,203 23.9,200.9 25.4,190.8 25.9,181.2 25.9,172.2 23.7,166 21.5,170.5 20.2,182.8 20.2,196.2 	
				"/>
			<polygon class="st17" points="21.5,203 14.9,203 12.5,195.5 20.2,196.2 	"/>
			<polygon class="st10" points="20.2,196.2 20.2,182.8 12.5,182.5 12.5,195.5 	"/>
			<polyline class="st43" points="20.2,182.8 21.5,170.5 14,170.1 12.5,182.5 	"/>
			<polygon class="st44" points="14,170.1 16.3,166 23.7,166 21.5,170.5 	"/>
			<polygon class="st45" points="21.5,200.2 21.5,201.3 23.4,199.8 24.8,192.1 23.4,192.1 22.1,199.7 	"/>
			<polygon class="st46" points="23.4,192.1 24,181.1 25.4,181.1 24.8,192.1 	"/>
			<polygon class="st47" points="24,181.1 24,171.9 23,169.6 23.7,168 24.8,171.5 25.4,181.1 	"/>
			<polygon class="st48" points="21.5,200.2 22.1,199.7 23.4,192.1 24,181.1 23,185.4 20.6,195.5 	"/>
			<polygon class="st9" points="23,185.4 20.6,182.8 20.6,195.5 	"/>
			<polyline class="st49" points="23,185.4 24,171.9 23,169.6 22.3,170.5 20.6,182.8 	"/>
		</g>
		<g id="_x35_">
			<path class="st17" d="M14.3,240.9l0.4,1.7c0,0,2,1.3,2.1,1.3s7-0.4,7-0.4l1.5-7l-7.6,0.5l0.1-13.4l-1.5-11.7l-2-4.8l-1.6,4.5v1.3
				l1.5,0.1l-0.4,9.3l0.4,11l2.3,8.7l-1.2,0.1L14.3,240.9z"/>
			<polygon class="st50" points="12.2,222.4 13.8,222.4 14.3,233.4 16.6,242.1 15.3,242.1 14.3,240.9 12.8,232.9 	"/>
			<polygon class="st51" points="12.2,222.4 13.8,222.4 14.2,212.9 12.8,212.9 	"/>
			<polygon class="st52" points="17.8,237.1 25.4,236.6 25.7,223.6 17.8,223.9 	"/>
			<polygon class="st44" points="25.7,223.6 24.1,211.6 16.4,211.9 17.8,223.9 	"/>
			<polygon class="st53" points="24.1,211.6 21.6,207.1 14.3,207.1 16.4,211.9 	"/>
		</g>
		<g id="_x36_">
			<path class="st22" d="M31.3,276.7l-4.4,7.2l-6.1,0.9l-5.8-1.3L9.6,274l-1.4-10.4l1.5-10.4l5.4-4.6l6.2,4.7l4,11.3
				c0,0-0.4,13.2-0.2,13.1C25.3,277.7,31.3,276.7,31.3,276.7z"/>
			<polygon class="st54" points="20.7,283.3 14.8,282.3 10.3,274 12,274 16.2,281.7 20.7,282.8 	"/>
			<polygon class="st55" points="12,274 10.3,263.9 8.8,264.1 10.3,274 	"/>
			<polygon class="st56" points="11.7,254.3 10.3,254 8.8,264.1 10.3,263.9 	"/>
			<polygon class="st37" points="31.3,276.7 25.1,277.8 25.2,264.7 31.6,263.3 	"/>
			<polygon class="st57" points="31.6,263.3 25.2,264.7 21.2,253.3 27.6,252.3 	"/>
			<polygon class="st58" points="27.6,252.3 21.2,248 15,248.5 21.2,253.3 	"/>
		</g>
		<g id="_x37_">
			<polygon class="st59" points="24,325.8 31.1,317.8 31.1,305.1 24.9,294.1 14.7,290.1 7.2,295 4.2,305.9 7.4,317.9 15.1,325.5 	"/>
			<polygon class="st17" points="24,325.8 28.6,324.1 35.5,316 31.1,317.8 	"/>
			<polygon class="st12" points="35.5,316 31.1,317.8 31.1,305.1 35.5,303.6 	"/>
			<polygon class="st53" points="35.5,303.6 31.1,305.1 24.9,294.1 14.7,290.1 19.7,289 29.2,292.6 	"/>
			<polygon class="st60" points="14.7,291.8 15.4,292.1 8.9,296.5 7.9,296 	"/>
			<polygon class="st34" points="8.9,296.5 6.4,306.1 5.2,306.1 7.9,296 	"/>
			<polygon class="st61" points="5.2,306.1 6.4,306.1 9.2,316.8 15.9,323.1 24,323.6 23.5,324.1 15.4,324.1 8.2,317.1 	"/>
			<path class="st62" d="M24,323.6l-6.6-14.9c0,0,12.8,8.4,12.4,8.6C29.3,317.5,24,323.6,24,323.6z"/>
			<polygon class="st63" points="24,323.6 15.9,323.1 17.3,308.6 	"/>
			<polygon class="st64" points="15.9,323.1 17.3,308.6 9.2,316.8 	"/>
			<polygon class="st65" points="17.3,308.6 6.4,306.1 9.2,316.8 	"/>
			<polygon class="st66" points="17.3,308.6 8.9,296.5 6.4,306.1 	"/>
			<polygon class="st67" points="17.3,308.6 15.4,292.1 8.9,296.5 	"/>
			<polygon class="st56" points="17.3,308.6 24,295.6 15.4,292.1 	"/>
			<polygon class="st34" points="17.3,308.6 29.7,305.5 24,295.6 	"/>
			<polygon class="st67" points="17.3,308.6 29.7,305.5 29.7,317.2 	"/>
		</g>
		<g id="_x38_">
			<polygon class="st68" points="2.4,348.3 6.2,336.5 16.2,330.9 28.3,334.2 35.5,344.8 35.5,357.2 27.5,365.9 16.4,366.6 6.6,359.8 	
				"/>
			<polygon class="st69" points="35.5,357.2 37.5,355.2 37.8,342.8 35.5,344.8 	"/>
			<polygon class="st70" points="37.8,342.8 35.5,344.8 28.3,334.2 30.3,332.4 	"/>
			<polygon class="st45" points="30.3,332.4 18.4,329.8 16.2,330.9 28.3,334.2 	"/>
			<polygon class="st71" points="26.9,364.1 16.7,365.2 7.6,358.8 3.8,348 4.7,348 8.5,358.5 16.9,364.4 26.4,363.6 	"/>
			<polygon class="st72" points="4.7,348 7.8,337.8 16.7,332.8 7.2,337.8 3.8,348 	"/>
			<polygon class="st73" points="16.9,364.4 19.1,349.3 27.3,363.7 	"/>
			<polygon class="st74" points="16.9,364.4 8.5,358.5 19.1,349.3 	"/>
			<path class="st75" d="M8.5,358.5c0.3-0.2,10.6-9.1,10.6-9.1L4.8,348L8.5,358.5z"/>
			<polygon class="st76" points="4.7,348 7.8,337.8 19.1,349.3 	"/>
			<polygon class="st77" points="19.1,349.3 16.7,332.8 7.8,337.8 	"/>
			<polygon class="st78" points="19.1,349.3 26.9,335.5 16.7,332.8 	"/>
			<polygon class="st78" points="19.1,349.3 33.9,344.8 26.9,335.5 	"/>
			<polygon class="st79" points="33.9,344.8 33.9,356 19.1,349.3 	"/>
			<polygon class="st80" points="33.9,356 27.3,363.7 19.1,349.3 	"/>
		</g>
	</svg>

</svg>